<?xml version="1.0" encoding="utf-8"?>
<!-- Generator: Adobe Illustrator 16.0.3, SVG Export Plug-In . SVG Version: 6.00 Build 0)  -->
<!DOCTYPE svg PUBLIC "-//W3C//DTD SVG 1.1//EN" "http://www.w3.org/Graphics/SVG/1.1/DTD/svg11.dtd" [
	<!ENTITY ns_extend "http://ns.adobe.com/Extensibility/1.0/">
	<!ENTITY ns_ai "http://ns.adobe.com/AdobeIllustrator/10.0/">
	<!ENTITY ns_graphs "http://ns.adobe.com/Graphs/1.0/">
	<!ENTITY ns_vars "http://ns.adobe.com/Variables/1.0/">
	<!ENTITY ns_imrep "http://ns.adobe.com/ImageReplacement/1.0/">
	<!ENTITY ns_sfw "http://ns.adobe.com/SaveForWeb/1.0/">
	<!ENTITY ns_custom "http://ns.adobe.com/GenericCustomNamespace/1.0/">
	<!ENTITY ns_adobe_xpath "http://ns.adobe.com/XPath/1.0/">
]>
<svg version="1.1" id="Ebene_1" xmlns:x="&ns_extend;" xmlns:i="&ns_ai;" xmlns:graph="&ns_graphs;"
	 xmlns="http://www.w3.org/2000/svg" xmlns:xlink="http://www.w3.org/1999/xlink" x="0px" y="0px" width="127px" height="127px"
	 viewBox="0 0 127 127" enable-background="new 0 0 127 127" xml:space="preserve">
<metadata>
	<sfw  xmlns="&ns_sfw;">
		<slices></slices>
		<sliceSourceBounds  width="126.202" height="126.908" x="0.399" y="-126.954" bottomLeftOrigin="true"></sliceSourceBounds>
	</sfw>
</metadata>
<g>
	
		<linearGradient id="SVGID_1_" gradientUnits="userSpaceOnUse" x1="-244.3306" y1="0.6479" x2="-244.3306" y2="126.3521" gradientTransform="matrix(-1 0 0 1 -180.8301 0)">
		<stop  offset="0" style="stop-color:#FFFFFF"/>
		<stop  offset="1" style="stop-color:#999999"/>
	</linearGradient>
	<path fill="url(#SVGID_1_)" stroke="#B3B3B3" stroke-width="1.2024" stroke-miterlimit="10" d="M1,126.353V1.158
		c2.405-0.333,6.973-0.511,10.624-0.511C74.899,0.647,126,52.062,126,115.229c0,3.651-0.277,7.517-0.613,11.124H1z"/>
	
		<linearGradient id="SVGID_2_" gradientUnits="userSpaceOnUse" x1="-244.5054" y1="227.3574" x2="-244.5054" y2="3.3965" gradientTransform="matrix(-1 0 0 1 -180.8301 0)">
		<stop  offset="0" style="stop-color:#808080"/>
		<stop  offset="0.1804" style="stop-color:#CCCCCC"/>
		<stop  offset="0.3608" style="stop-color:#848686"/>
		<stop  offset="0.549" style="stop-color:#FFFFFF"/>
		<stop  offset="0.7216" style="stop-color:#CCF5F5"/>
		<stop  offset="0.9216" style="stop-color:#999999"/>
		<stop  offset="1" style="stop-color:#808080"/>
	</linearGradient>
	<path fill="url(#SVGID_2_)" stroke="#B3B3B3" stroke-width="1.2024" stroke-miterlimit="10" d="M123.534,123.947H3.405V3.014
		C5.81,2.808,8.792,2.7,11.625,2.7c62.201,0,112.322,50.586,112.322,112.528C123.946,118.06,123.739,120.34,123.534,123.947z"/>
	
		<linearGradient id="SVGID_3_" gradientUnits="userSpaceOnUse" x1="-299.1665" y1="149.5908" x2="-155.8143" y2="6.2386" gradientTransform="matrix(-1 0 0 1 -180.8301 0)">
		<stop  offset="0" style="stop-color:#F9F9FB"/>
		<stop  offset="1" style="stop-color:#7F7F81"/>
	</linearGradient>
	<path fill="url(#SVGID_3_)" d="M8.816,117.334V9.081c1.202-0.015,1.599-0.027,2.351-0.027c58.494,0,105.93,47.385,105.93,105.872
		c0,0.806,0.039,1.607,0.021,2.408H8.816z"/>
	
		<linearGradient id="SVGID_4_" gradientUnits="userSpaceOnUse" x1="-296.2339" y1="63.5259" x2="-92.8457" y2="63.5259" gradientTransform="matrix(-1 0 0 1 -180.8301 0)">
		<stop  offset="0" style="stop-color:#B7B8BC"/>
		<stop  offset="1" style="stop-color:#808080"/>
	</linearGradient>
	<path fill="url(#SVGID_4_)" d="M10.018,116.132V10.95c1.203-0.005,0.902-0.03,1.305-0.03c57.478,0,104.06,46.535,104.06,104.006
		c0,0.405,0.025,0.802,0.021,1.206H10.018z"/>
	
		<linearGradient id="SVGID_5_" gradientUnits="userSpaceOnUse" x1="-243.1528" y1="219.543" x2="-243.1528" y2="12.4235" gradientTransform="matrix(-1 0 0 1 -180.8301 0)">
		<stop  offset="0" style="stop-color:#ADADAD"/>
		<stop  offset="0.5" style="stop-color:#999999"/>
		<stop  offset="0.7" style="stop-color:#666666"/>
		<stop  offset="0.85" style="stop-color:#4D4D4D"/>
		<stop  offset="0.95" style="stop-color:#292929"/>
		<stop  offset="1" style="stop-color:#1C1C1C"/>
	</linearGradient>
	<path fill="url(#SVGID_5_)" d="M11.221,114.93V12.724c56.514,0,102.205,45.639,102.205,102.201c0,0.002,0,0.003,0,0.005H11.221z"/>
	
		<linearGradient id="SVGID_6_" gradientUnits="userSpaceOnUse" x1="-243.1528" y1="218.7412" x2="-243.1528" y2="13.1242" gradientTransform="matrix(-1 0 0 1 -180.8301 0)">
		<stop  offset="0" style="stop-color:#FFFFFF;stop-opacity:0"/>
		<stop  offset="0.067" style="stop-color:#F9F9F9;stop-opacity:0.0693"/>
		<stop  offset="0.1588" style="stop-color:#E7E7E7;stop-opacity:0.1643"/>
		<stop  offset="0.2649" style="stop-color:#CACACA;stop-opacity:0.274"/>
		<stop  offset="0.3817" style="stop-color:#A2A2A2;stop-opacity:0.3949"/>
		<stop  offset="0.5059" style="stop-color:#6F6F6F;stop-opacity:0.5233"/>
		<stop  offset="0.58" style="stop-color:#4D4D4D;stop-opacity:0.6"/>
		<stop  offset="0.96" style="stop-color:#F2F2F2"/>
	</linearGradient>
	<path opacity="0.8" fill="url(#SVGID_6_)" d="M74.949,114.93v-0.003c0-34.936-28.858-63.125-63.729-63.125V12.724
		c56.514,0,102.205,45.639,102.205,102.201c0,0.002,0,0.003,0,0.005H74.949z"/>
</g>
</svg>
